<?xml version="1.0" encoding="UTF-8"?>

<svg
    width="46.5mm"
    height="46.5mm"
    version="1.1"
    viewBox="0 0 46.5 46.5"
    xmlns="http://www.w3.org/2000/svg">

 <g stroke="#000" stroke-linecap="round" stroke-linejoin="round" stroke-miterlimit="8.5">
  <circle cx="23.25" cy="23.225" r="14.623" fill="none" stroke-width="5"/>
  <g stroke-width="3.228">
   <path d="m20.706 1.8522-1.1647 5.6911h7.4167l-1.1642-5.6911z" fill="#000"/>
   <path d="m37.111 6.8499-4.8478 3.2006 5.2444 5.2444 3.201-4.8474z" fill="#000"/>
   <path d="m5.7914 10.447 3.2006 4.8478 5.2444-5.2444-4.8474-3.201z" fill="#000"/>
   <path d="m1.8521 26.852 5.6911 1.1647-1e-7 -1.1647 4e-7 -5.0878v-1.1642l-5.6911 1.1642z" fill="#000"/>
   <path d="m44.648 21.764-5.6911-1.1647v1.1647l1e-6 5.0878-1e-6 1.1642 5.6911-1.1642z" fill="#000"/>
   <path d="m10.447 40.708 4.8478-3.2006-5.2444-5.2444-3.201 4.8474z" fill="#000"/>
   <path d="m39.65 37.111-3.2006-4.8478-5.2444 5.2444 4.8474 3.201z" fill="#000"/>
   <path d="m25.794 44.648 1.1647-5.6911h-1.1647l-5.0878-1e-6h-1.1642l1.1642 5.6911z" fill="#000"/>
  </g>
 </g>
</svg>
