<?xml version="1.0" encoding="UTF-8" standalone="no"?>

<svg
   width="177mm"
   height="177mm"
   viewBox="0 0 177 177"
   version="1.1"
   xmlns="http://www.w3.org/2000/svg">
  <g>
    <path
       id="path31"
       style="fill:#ffffff;fill-opacity:1;fill-rule:evenodd;stroke-width:0.519576"
       d="M 76.904886,0.86737049 72.419371,21.755501 A 68.431457,68.431457 0 0 0 52.95751,29.829944 L 35.003568,18.223417 18.539457,34.687527 30.145985,52.64147 A 68.431457,68.431457 0 0 0 22.071542,72.10333 L 1.1834108,76.588846 v 23.283333 l 20.8881312,4.485511 a 68.431457,68.431457 0 0 0 8.074443,19.46186 L 18.539457,141.7735 35.003568,158.23709 52.95751,146.63108 a 68.431457,68.431457 0 0 0 19.461861,8.07444 l 4.485515,20.88814 23.283334,-5.2e-4 4.48551,-20.88762 a 68.431457,68.431457 0 0 0 19.46186,-8.07496 l 17.95395,11.60653 16.46359,-16.46359 -11.60601,-17.95395 a 68.431457,68.431457 0 0 0 8.07444,-19.46186 L 175.9097,99.872179 V 76.588846 l -20.8623,-4.47983 a 68.431457,68.431457 0 0 0 -8.07806,-19.50217 L 158.55313,34.687527 142.08954,18.223417 124.1697,29.807722 A 68.431457,68.431457 0 0 0 104.66805,21.729146 L 100.18822,0.86737049 Z M 88.546553,57.422575 A 30.169469,30.807683 0 0 1 118.71577,88.230512 30.169469,30.807683 0 0 1 88.546553,119.03793 30.169469,30.807683 0 0 1 58.377335,88.230512 30.169469,30.807683 0 0 1 88.546553,57.422575 Z" />
  </g>
</svg>
