<?xml version="1.0" encoding="UTF-8"?>

<svg
    width="43.5mm"
    height="49.5mm"
    version="1.1"
    viewBox="0 0 43.5 49.5"
    xmlns="http://www.w3.org/2000/svg">

 <g fill="none" stroke="#000" stroke-linecap="round" stroke-linejoin="round" stroke-width="3">
  <path d="m1.6813 5.5838-0.039484 38.323a3.9647 3.9647 45.03 0 0 3.9647 3.9687h32.283a3.9688 3.9688 135 0 0 3.9688-3.9688v-27.39a9.1402 9.1402 66.529 0 0-2.8998-6.6784l-5.8289-5.4466a10.095 10.095 21.597 0 0-6.8685-2.719l-20.607-0.048663a3.9635 3.9635 135.1 0 0-3.9728 3.9594z"/>
  <path d="m28.838 3.4205v7.0338a3.9688 3.9688 45 0 0 3.9688 3.9688h7.2044"/>
  <path d="m32.687 32.917v11.534"/>
  <path d="m26.92 38.685h11.534"/>
 </g>
</svg>
