<?xml version="1.0" encoding="UTF-8"?>

<svg
    width="43.5mm"
    height="49.5mm"
    version="1.1"
    viewBox="0 0 43.5 49.5"
    xmlns="http://www.w3.org/2000/svg">

 <g stroke="#000" stroke-linecap="round" stroke-linejoin="round">
  <g fill="none" stroke-width="3">
   <path d="m1.6813 5.5838-0.039484 38.323a3.9647 3.9647 45.03 0 0 3.9647 3.9687h32.283a3.9688 3.9688 135 0 0 3.9688-3.9688v-27.39a9.1402 9.1402 66.529 0 0-2.8998-6.6784l-5.8289-5.4466a10.095 10.095 21.597 0 0-6.8685-2.719l-20.607-0.048663a3.9635 3.9635 135.1 0 0-3.9728 3.9594z"/>
   <path d="m12.852 46.32v-9.3418a2.6458 2.6458 135 0 1 2.6458-2.6458h11.803a2.6458 2.6458 45 0 1 2.6458 2.6458v9.4675"/>
   <path d="m12.852 2.9654v9.4201h14.329v-9.2487"/>
  </g>
  <rect x="21.769" y="3.1014" width="4.7688" height="7.6542" stroke-miterlimit="8.5" stroke-width="2.7946" fill="#000"/>
 </g>
</svg>
