<?xml version="1.0" encoding="UTF-8" standalone="no"?>
<svg
   width="177mm"
   height="177mm"
   viewBox="0 0 177 177"
   version="1.1"
   id="svg5"
   sodipodi:docname="gear_light.svg"
   xmlns:sodipodi="http://sodipodi.sourceforge.net/DTD/sodipodi-0.dtd"
   xmlns="http://www.w3.org/2000/svg"
   xmlns:svg="http://www.w3.org/2000/svg">
  <sodipodi:namedview
     id="namedview7"
     pagecolor="#ffffff"
     bordercolor="#666666"
     borderopacity="1.0"
     showgrid="false"/>
  <defs
     id="defs2" />
  <g>
    <path
       id="path31"
       style="fill:#ffffff;fill-opacity:1;fill-rule:evenodd;stroke:#000000;stroke-width:8.65778;stroke-miterlimit:4;stroke-dasharray:none;stroke-opacity:1"
       d="M 77.558641,4.5626044 73.243687,24.656462 A 65.829358,65.829358 0 0 0 54.521862,32.423876 L 37.250617,21.258685 21.412552,37.096749 32.577743,54.367996 A 65.829358,65.829358 0 0 0 24.81033,73.08982 L 4.7164656,77.404774 V 99.802732 L 24.81033,104.11767 a 65.829358,65.829358 0 0 0 7.767413,18.72182 l -11.165191,17.27126 15.838065,15.83756 17.271245,-11.1647 a 65.829358,65.829358 0 0 0 18.721825,7.76742 l 4.314954,20.09387 22.397988,-5e-4 4.314961,-20.09337 a 65.829358,65.829358 0 0 0 18.72183,-7.76792 l 17.27126,11.1652 15.83756,-15.83756 -11.16469,-17.27126 a 65.829358,65.829358 0 0 0 7.76741,-18.72182 l 20.09386,-4.314938 V 77.404774 l -20.069,-4.309484 a 65.829358,65.829358 0 0 0 -7.7709,-18.760602 L 156.10224,37.096749 140.26468,21.258685 123.02624,32.402499 a 65.829358,65.829358 0 0 0 -18.76011,-7.77139 L 99.956629,4.5626044 Z M 88.757635,58.967299 A 29.022278,29.636224 0 0 1 117.7797,88.603768 29.022278,29.636224 0 0 1 88.757635,118.23969 29.022278,29.636224 0 0 1 59.735599,88.603768 29.022278,29.636224 0 0 1 88.757635,58.967299 Z" />
  </g>
</svg>
