<?xml version="1.0" encoding="UTF-8"?>

<svg
    width="59mm"
    height="53mm"
    version="1.1"
    viewBox="0 0 59 53"
    xmlns="http://www.w3.org/2000/svg">

 <g stroke="#000">
  <path d="m28.152 24.971-25.327 25.327" fill="none" stroke-width="7.5"/>
  <path d="m34.751 18.372-4.5978 4.5978" fill="none" stroke-width="7.5"/>
  <g>
   <path transform="matrix(.41001 0 0 .41001 11.563 13.467)" d="m89.57 31.66-1.3342-4.9551-4.9551-1.3342 4.9551-1.3342 1.3342-4.9551 1.3342 4.9551 4.9551 1.3342-4.9551 1.3342z" stroke-width="9.9997"/>
   <path transform="matrix(.23553 0 0 .23553 .9437 6.2691)" d="m89.57 31.66-1.3342-4.9551-4.9551-1.3342 4.9551-1.3342 1.3342-4.9551 1.3342 4.9551 4.9551 1.3342-4.9551 1.3342z" stroke-width="9.7651"/>
   <path transform="matrix(.23553 0 0 .23553 16.589 .22286)" d="m89.57 31.66-1.3342-4.9551-4.9551-1.3342 4.9551-1.3342 1.3342-4.9551 1.3342 4.9551 4.9551 1.3342-4.9551 1.3342z" stroke-width="9.7651"/>
  </g>
 </g>
</svg>
