<?xml version="1.0" encoding="UTF-8"?>

<svg
    width="45mm"
    height="51mm"
    version="1.1"
    viewBox="0 0 45 51"
    xmlns="http://www.w3.org/2000/svg">

 <g stroke="#000">
  <g fill-opacity="0">
   <path transform="matrix(.68706 0 0 .68706 5.3636 -5.8108)" d="m54.726 62.791c-0.6853 1.187-28.304 17.132-29.674 17.132s-28.989-15.945-29.674-17.132c-0.6853-1.187-0.6853-33.078 1e-7 -34.265s28.304-17.132 29.674-17.132 28.989 15.945 29.674 17.132c0.6853 1.187 0.6853 33.078 0 34.265z" stroke-width="4.3665"/>
   <path transform="matrix(.71733 0 0 .71733 7.9453 5.8203)" d="m20.395 59.191c-1.0852 0-13.561-22.236-14.104-23.176-0.54261-0.93983-13.562-22.863-13.019-23.803 0.54261-0.93983 26.038-0.62638 27.123-0.62638s26.581-0.31344 27.123 0.62638c0.54261 0.93983-12.477 22.863-13.019 23.803-0.54261 0.93983-13.019 23.176-14.104 23.176z" stroke-width="4.1822"/>
   <path transform="matrix(.6019 0 0 .6019 4.908 8.2042)" d="m44.985 39.001c-0.31272 0.54165-15.007 0.361-15.632 0.361s-15.319 0.18065-15.632-0.361c-0.31272-0.54165 7.1906-13.177 7.5034-13.718s7.5032-13.357 8.1286-13.357 7.8159 12.816 8.1286 13.357 7.8161 13.177 7.5034 13.718z" stroke-width="4.9842"/>
  </g>
  <g fill="none" stroke-linecap="round" stroke-linejoin="round" stroke-width="3">
   <path d="m41.483 36.65-10.184-4.5833"/>
   <path d="m13.852 32.067-10.184 4.5833z"/>
   <path d="m22.575 2.2796v11.614"/>
  </g>
 </g>
</svg>
